<?xml version="1.0" encoding="UTF-8"?>
<svg xmlns="http://www.w3.org/2000/svg" xmlns:xlink="http://www.w3.org/1999/xlink" width="458.5pt" height="311.1pt" viewBox="0 0 458.5 311.1" version="1.1">
<defs>
<clipPath id="clip1">
  <path d="M 256 295 L 284 295 L 284 311.101563 L 256 311.101563 Z M 256 295 "/>
</clipPath>
</defs>
<g id="surface1">
<path style=" stroke:none;fill-rule:evenodd;fill:rgb(0%,65.039063%,31.37207%);fill-opacity:1;" d="M 225.285156 227.328125 C 213.128906 200.3125 207.066406 169.410156 203.441406 136.949219 C 206.847656 134.421875 210.253906 131.886719 213.660156 129.355469 C 212.953125 161.996094 216.996094 194.652344 225.285156 227.328125 Z M 225.285156 227.328125 "/>
<path style=" stroke:none;fill-rule:evenodd;fill:rgb(0%,65.039063%,31.37207%);fill-opacity:1;" d="M 223.835938 199.148438 C 221.921875 174.464844 221.679688 149.632813 222.519531 124.714844 C 226.894531 121.929688 231.269531 119.148438 235.644531 116.367188 C 230.011719 142.132813 228.773438 168.269531 226.316406 194.035156 C 225.574219 195.859375 224.902344 196.519531 223.835938 199.148438 Z M 223.835938 199.148438 "/>
<path style=" stroke:none;fill-rule:evenodd;fill:rgb(0%,65.039063%,31.37207%);fill-opacity:1;" d="M 230.589844 191.6875 C 235.089844 165.769531 239.589844 139.851563 244.085938 113.933594 C 249.644531 110.949219 255.210938 107.964844 260.769531 104.980469 C 250.605469 130.714844 241.796875 160.101563 234.335938 193.105469 C 233.089844 192.632813 231.839844 192.160156 230.589844 191.6875 Z M 230.589844 191.6875 "/>
<path style=" stroke:none;fill-rule:evenodd;fill:rgb(0%,65.039063%,31.37207%);fill-opacity:1;" d="M 204.609375 98.441406 C 205.703125 83.835938 207.566406 69.59375 211.78125 56.488281 C 217.1875 37.65625 231.53125 39.984375 226.59375 55.714844 C 223.148438 65.753906 220.757813 75.972656 219.5625 86.394531 C 214.578125 90.410156 209.59375 94.425781 204.609375 98.441406 Z M 204.609375 98.441406 "/>
<path style=" stroke:none;fill-rule:evenodd;fill:rgb(0%,65.039063%,31.37207%);fill-opacity:1;" d="M 228.753906 80.585938 C 232.003906 69.644531 235.253906 58.710938 238.503906 47.769531 C 245.234375 27.804688 258.949219 32.734375 254.8125 47.210938 C 251.777344 54.867188 249.472656 61.796875 248.4375 67.835938 C 241.878906 72.085938 235.3125 76.335938 228.753906 80.585938 Z M 228.753906 80.585938 "/>
<path style=" stroke:none;fill-rule:evenodd;fill:rgb(0%,65.039063%,31.37207%);fill-opacity:1;" d="M 258.5625 61.972656 C 262.128906 53.785156 265.6875 45.597656 269.253906 37.410156 C 275.921875 22.035156 293.347656 25.140625 288.9375 37.222656 C 287.03125 41.285156 285.128906 45.347656 283.21875 49.410156 C 275.003906 53.597656 266.78125 57.785156 258.5625 61.972656 Z M 258.5625 61.972656 "/>
<path style=" stroke:none;fill-rule:evenodd;fill:rgb(0%,65.039063%,31.37207%);fill-opacity:1;" d="M 162.007813 156.820313 C 216.414063 80.402344 305.691406 47.378906 398.070313 38.132813 C 458.554688 35.109375 456.140625 86.003906 408.394531 68.703125 C 317.59375 61.308594 237.246094 95.652344 162.007813 156.820313 Z M 162.007813 156.820313 "/>
<path style=" stroke:none;fill-rule:evenodd;fill:rgb(92.96875%,10.984802%,14.109802%);fill-opacity:1;" d="M 287.589844 110.726563 C 271.519531 132.234375 260.15625 112.230469 279.507813 95.53125 C 291.5625 85.132813 320.464844 84.746094 325.613281 106.601563 C 331.285156 130.671875 319.234375 153.945313 284.214844 183.402344 C 321.078125 176.804688 355.671875 177.152344 387.425781 185.203125 C 425.933594 194.96875 424.628906 229.28125 381.425781 211.191406 C 349.300781 197.738281 313.140625 193.066406 269.21875 203.128906 C 265.546875 198.597656 261.878906 194.0625 258.210938 189.53125 C 271.078125 176.214844 283.949219 162.898438 296.820313 149.585938 C 307.871094 137.105469 315.546875 124.523438 309.269531 113.507813 C 303.628906 103.605469 294.679688 101.234375 287.589844 110.726563 Z M 287.589844 110.726563 "/>
<path style=" stroke:none;fill-rule:evenodd;fill:rgb(92.96875%,10.984802%,14.109802%);fill-opacity:1;" d="M 393.398438 78.011719 C 363.171875 73.054688 340.753906 89.265625 337.898438 118.4375 C 334.714844 151.058594 353.859375 173.476563 389.949219 170.9375 C 424.867188 168.480469 432.816406 142.4375 430.601563 116.9375 C 429.257813 101.503906 418.214844 102.699219 418.148438 117.839844 C 418.046875 144.761719 405.347656 155.945313 385.148438 155.488281 C 367.351563 155.089844 352.933594 147.164063 350.648438 125.1875 C 348.121094 100.859375 374.398438 84.9375 392.671875 90.546875 C 412.441406 96.628906 414.113281 81.410156 393.398438 78.011719 Z M 393.398438 78.011719 "/>
<path style=" stroke:none;fill-rule:evenodd;fill:rgb(0%,65.039063%,31.37207%);fill-opacity:1;" d="M 365.886719 127.53125 C 370.492188 117.589844 377.765625 109.335938 387.5625 101.65625 C 395.574219 95.378906 396.554688 99.554688 389.796875 104.222656 C 380.421875 110.699219 372.964844 119.050781 365.886719 127.53125 Z M 365.886719 127.53125 "/>
<path style=" stroke:none;fill-rule:evenodd;fill:rgb(0%,65.039063%,31.37207%);fill-opacity:1;" d="M 363.410156 139.085938 C 374.476563 123.914063 391.601563 108.300781 420.261719 91.835938 C 432.222656 84.636719 437.605469 93.964844 426.230469 98.464844 C 401.441406 108.511719 381.074219 122.605469 363.410156 139.085938 Z M 363.410156 139.085938 "/>
<path style=" stroke:none;fill-rule:evenodd;fill:rgb(0%,65.039063%,31.37207%);fill-opacity:1;" d="M 368.4375 140.65625 C 379.472656 130.621094 392.0625 122.984375 406.089844 117.554688 C 414.605469 115.0625 414.007813 120.402344 407.285156 122.355469 C 392.074219 125.867188 379.453125 132.339844 368.4375 140.65625 Z M 368.4375 140.65625 "/>
<path style=" stroke:none;fill-rule:evenodd;fill:rgb(0%,44.700623%,72.851563%);fill-opacity:1;" d="M 270.183594 214.378906 C 303.773438 204.914063 337.640625 207.296875 369.746094 221.09375 C 378.671875 225.398438 374.628906 233.820313 365.589844 227.730469 C 340.621094 215.335938 310.78125 208.601563 270.183594 214.378906 Z M 270.183594 214.378906 "/>
<path style=" stroke:none;fill-rule:evenodd;fill:rgb(0%,44.700623%,72.851563%);fill-opacity:1;" d="M 133.347656 275.089844 C 132.03125 277.050781 130.671875 278.355469 129.296875 279.214844 C 126.910156 281.222656 126.703125 283.503906 130.421875 286.265625 C 133.945313 289.816406 137.472656 293.367188 140.996094 296.917969 C 141.921875 297.089844 142.847656 297.265625 143.773438 297.441406 C 146.234375 301.800781 147.910156 304.488281 153.820313 308.542969 C 149.988281 302.902344 148.136719 298.066406 141.296875 293.765625 C 138.746094 290.964844 136.195313 288.167969 133.648438 285.367188 C 132.183594 283.082031 132.878906 281.691406 134.023438 280.492188 C 134.722656 279.941406 135.425781 279.394531 136.128906 278.847656 C 135.199219 277.59375 134.273438 276.34375 133.347656 275.089844 Z M 133.347656 275.089844 "/>
<path style=" stroke:none;fill-rule:evenodd;fill:rgb(0%,44.700623%,72.851563%);fill-opacity:1;" d="M 170.121094 301.441406 C 175.808594 305.144531 178.023438 308.25 171.808594 309.917969 C 174.84375 306.804688 173.59375 305.757813 170.121094 301.441406 Z M 170.121094 301.441406 "/>
<path style=" stroke:none;fill-rule:evenodd;fill:rgb(0%,44.700623%,72.851563%);fill-opacity:1;" d="M 161.273438 283.367188 C 171.179688 276.019531 180.421875 267.738281 189.324219 258.992188 C 192.5625 249.191406 199.257813 244.726563 209.347656 245.492188 C 215.820313 239.890625 222.296875 234.292969 228.773438 228.691406 C 229.613281 235.351563 230.320313 242.136719 233.796875 246.242188 C 230.378906 254.023438 225.363281 259.453125 217.523438 260.042969 C 201.046875 270.964844 184.574219 281.890625 168.097656 292.816406 C 160.058594 300.457031 149.644531 292.902344 161.273438 283.367188 Z M 161.273438 283.367188 "/>
<path style=" stroke:none;fill-rule:evenodd;fill:rgb(0%,44.700623%,72.851563%);fill-opacity:1;" d="M 236.121094 228.167969 C 229.5625 218.035156 226.4375 206.539063 228.472656 192.992188 C 230.246094 183.421875 235.164063 178.144531 243.699219 177.800781 C 248.046875 184.550781 252.398438 191.300781 256.746094 198.050781 C 263.089844 203.796875 266.261719 210.753906 263.796875 219.878906 C 271.835938 241.269531 282.320313 262.925781 291.808594 284.339844 C 283.820313 279.265625 281.847656 282.371094 277.597656 291.128906 C 270.859375 301.339844 266.90625 294.902344 264.171875 287.003906 C 261.839844 280.261719 259.390625 274.246094 256.074219 268.707031 C 241.164063 253.496094 233.859375 239.847656 236.121094 228.167969 Z M 236.121094 228.167969 "/>
<g clip-path="url(#clip1)" clip-rule="nonzero">
<path style=" stroke:none;fill-rule:evenodd;fill:rgb(0%,44.700623%,72.851563%);fill-opacity:1;" d="M 256.871094 295.964844 C 261.175781 303.417969 267.894531 304.886719 276.003906 302.9375 C 278.191406 305.980469 280.550781 308.894531 283.949219 311.039063 C 280.613281 310.914063 277.980469 308.460938 275.546875 305.335938 C 262.921875 307.042969 256.503906 304.058594 256.871094 295.964844 Z M 256.871094 295.964844 "/>
</g>
<path style=" stroke:none;fill-rule:evenodd;fill:rgb(0%,44.700623%,72.851563%);fill-opacity:1;" d="M 306.597656 295.4375 C 316.277344 300.523438 314.265625 305.195313 303.148438 309.542969 C 309.765625 302.5 311.230469 303.492188 306.597656 295.4375 Z M 306.597656 295.4375 "/>
<path style=" stroke:none;fill-rule:evenodd;fill:rgb(0%,44.700623%,72.851563%);fill-opacity:1;" d="M 181.839844 153.347656 C 188.902344 181.214844 207.640625 194.023438 215.738281 214.851563 C 211.253906 209.804688 206.289063 202.515625 202.988281 203.003906 C 203.179688 213.183594 202.648438 223.320313 199.839844 233.300781 C 193.539063 247.984375 172.160156 252.191406 149.589844 267.800781 C 155.488281 263.351563 161.386719 258.902344 167.289063 254.453125 C 167.234375 248.636719 181.339844 238.335938 197.738281 227.300781 C 198.925781 215.578125 198.226563 203.851563 195.414063 192.128906 C 181.910156 183.078125 172.878906 173.140625 172.992188 161.378906 C 175.9375 158.699219 178.886719 156.023438 181.839844 153.347656 Z M 181.839844 153.347656 "/>
<path style=" stroke:none;fill-rule:evenodd;fill:rgb(0%,44.700623%,72.851563%);fill-opacity:1;" d="M 151.679688 114.050781 C 154.003906 114.617188 156.1875 114.890625 157.304688 112.847656 C 161.464844 118.910156 164.546875 125.273438 165.105469 132.347656 C 161.632813 125.546875 157.152344 119.453125 151.679688 114.050781 Z M 151.679688 114.050781 "/>
<path style=" stroke:none;fill-rule:evenodd;fill:rgb(0%,44.700623%,72.851563%);fill-opacity:1;" d="M 145.15625 70.550781 C 148.980469 73.097656 152.851563 73.429688 156.78125 71.074219 C 160.933594 81.613281 162.6875 92.433594 159.40625 103.253906 C 156.304688 113.472656 148.714844 113.445313 138.929688 99.503906 C 134.921875 93.785156 139.621094 89.945313 141.929688 85.777344 C 144.40625 81.296875 144.914063 75.964844 145.15625 70.550781 Z M 145.15625 70.550781 "/>
<path style=" stroke:none;fill-rule:evenodd;fill:rgb(0%,44.700623%,72.851563%);fill-opacity:1;" d="M 131.539063 61.511719 C 127.777344 71.601563 126.382813 82.199219 133.640625 94.664063 C 133.929688 90.769531 134.753906 87.460938 137.242188 85.964844 C 138.296875 81.519531 138.394531 77.460938 137.453125 73.8125 C 134.253906 70.644531 133.066406 65.949219 131.539063 61.511719 Z M 131.539063 61.511719 "/>
<path style=" stroke:none;fill-rule:evenodd;fill:rgb(0%,44.700623%,72.851563%);fill-opacity:1;" d="M 146.3125 41.265625 C 157.054688 36.605469 169.035156 37.460938 181.714844 41.414063 C 189.546875 37.554688 198.359375 35.640625 204.964844 43.0625 C 209.855469 48.558594 208.027344 54.835938 201.964844 57.015625 C 193.585938 60.027344 184.675781 59.628906 175.863281 56.113281 C 170.027344 54.28125 163.351563 53.796875 156.515625 53.5625 C 151.492188 50.410156 148.046875 46.339844 146.3125 41.265625 Z M 146.3125 41.265625 "/>
<path style=" stroke:none;fill-rule:evenodd;fill:rgb(0%,44.700623%,72.851563%);fill-opacity:1;" d="M 143.3125 35.714844 C 127.449219 33.546875 119.378906 42.695313 125.613281 53.1875 C 132.796875 65.277344 143.5625 64.703125 152.3125 61.140625 C 142.773438 61.65625 135.914063 58.96875 131.761719 51.390625 C 125.785156 40.472656 134.117188 38.195313 143.3125 35.714844 Z M 143.3125 35.714844 "/>
<path style=" stroke:none;fill-rule:evenodd;fill:rgb(0%,44.700623%,72.851563%);fill-opacity:1;" d="M 129.738281 38.339844 C 127.761719 29.464844 122.78125 29.324219 115.414063 32.488281 C 109.089844 35.203125 103.761719 40.363281 99.589844 48.464844 C 68.488281 57.863281 37.386719 67.261719 6.289063 76.664063 C 0.0664063 79.214844 2.984375 94.871094 10.863281 95.414063 C 41.988281 86.488281 73.109375 77.5625 104.234375 68.636719 C 103.761719 66.414063 103.285156 64.1875 102.8125 61.964844 C 102.191406 59.410156 102.949219 58.828125 105.214844 60.386719 C 110.605469 64.761719 116.261719 66.035156 122.535156 60.011719 C 114.554688 61.433594 109.183594 57.636719 105.285156 51.6875 C 101.078125 45.261719 106.65625 40.855469 116.910156 37.890625 C 121.71875 36.503906 126.117188 36.316406 129.738281 38.339844 Z M 129.738281 38.339844 "/>
<path style=" stroke:none;fill-rule:evenodd;fill:rgb(0%,44.700623%,72.851563%);fill-opacity:1;" d="M 140.234375 28.214844 C 136.34375 17.128906 140.410156 9.089844 149.648438 4.363281 C 158.234375 -0.0234375 165.691406 1.203125 170.800781 7.515625 C 180.679688 6.945313 186.300781 9.226563 181.824219 16.738281 C 179.054688 12.046875 173.34375 10.074219 166.222656 11.1875 C 152.558594 13.335938 145.753906 20.671875 140.234375 28.214844 Z M 140.234375 28.214844 "/>
<path style=" stroke:none;fill-rule:evenodd;fill:rgb(0%,44.700623%,72.851563%);fill-opacity:1;" d="M 149.160156 33.878906 C 157.320313 23.171875 166.746094 15.601563 179.910156 17.300781 C 180.046875 15.878906 180.1875 14.453125 180.324219 13.027344 C 181.023438 13.164063 181.722656 13.300781 182.421875 13.4375 C 182.074219 15.476563 181.71875 16.5625 181.410156 18.238281 C 185.386719 22.589844 188.355469 28.230469 184.632813 37.628906 C 184.535156 34.824219 184.324219 31.839844 184.785156 28.738281 C 181.988281 28.238281 179.1875 27.738281 176.386719 27.238281 C 175.808594 28.972656 175.363281 30.851563 175.785156 33.6875 C 174.40625 32.359375 174.363281 30.019531 174.214844 27.765625 C 168.679688 28.355469 163.394531 30.921875 158.160156 33.914063 C 162.171875 29.996094 167.335938 27.074219 173.535156 25.0625 C 173.035156 23.363281 172.535156 21.664063 172.035156 19.964844 C 165.222656 20.921875 157.519531 25.910156 149.160156 33.878906 Z M 174.628906 19.214844 C 178.441406 18.328125 181.476563 20.265625 183.773438 24.878906 C 181.101563 23.730469 178.464844 23.246094 175.898438 24.203125 C 174.414063 22.265625 174.117188 20.636719 174.628906 19.214844 Z M 174.628906 19.214844 "/>
</g>
</svg>
